<?xml version="1.0" encoding="UTF-8"?>
<!DOCTYPE svg PUBLIC "-//W3C//DTD SVG 1.1//EN" "http://www.w3.org/Graphics/SVG/1.1/DTD/svg11.dtd">
<!-- Creator: CorelDRAW X8 -->
<svg xmlns="http://www.w3.org/2000/svg" xml:space="preserve" width="5.2492mm" height="5.6726mm" version="1.1" style="shape-rendering:geometricPrecision; text-rendering:geometricPrecision; image-rendering:optimizeQuality; fill-rule:evenodd; clip-rule:evenodd"
viewBox="0 0 5249 5673"
 xmlns:xlink="http://www.w3.org/1999/xlink">
 <defs>
  <style type="text/css">
   <![CDATA[
    .fil1 {fill:none}
    .fil0 {fill:white;fill-rule:nonzero}
   ]]>
  </style>
 </defs>
 <g id="Слой_x0020_1">
  <metadata id="CorelCorpID_0Corel-Layer"/>
  <g id="_2823924955904">
   <path class="fil0" d="M1760 952c-353,786 -178,1078 21,1410 133,222 275,460 334,823 28,171 25,336 -2,497 -27,158 -77,312 -146,463l-403 -184c53,-115 92,-232 112,-352 19,-115 21,-233 2,-353 -46,-280 -165,-480 -277,-667 -263,-438 -492,-821 -45,-1818l404 181zm-1289 3746l4307 0 0 444 -4307 0 0 -444zm3295 -3746c-353,786 -178,1078 21,1410 133,222 275,460 334,823 28,171 25,336 -2,497 -27,158 -77,312 -146,463l-403 -184c53,-115 92,-232 112,-352 19,-115 21,-233 2,-353 -46,-280 -165,-480 -277,-667 -262,-438 -492,-821 -45,-1818l404 181zm-1008 -241c-383,854 -193,1171 23,1532 143,238 294,492 358,880 29,181 26,357 -3,528 -28,169 -82,333 -155,494l-403 -184c57,-125 99,-253 121,-382 22,-127 24,-255 2,-385 -49,-305 -178,-521 -300,-724 -279,-467 -524,-876 -47,-1939l404 180z"/>
   <rect class="fil1" width="5249" height="5673"/>
  </g>
 </g>
</svg>
