<?xml version="1.0" encoding="UTF-8"?>
<!DOCTYPE svg PUBLIC "-//W3C//DTD SVG 1.1//EN" "http://www.w3.org/Graphics/SVG/1.1/DTD/svg11.dtd">
<!-- Creator: CorelDRAW X8 -->
<svg xmlns="http://www.w3.org/2000/svg" xml:space="preserve" width="5.2492mm" height="5.6726mm" version="1.1" style="shape-rendering:geometricPrecision; text-rendering:geometricPrecision; image-rendering:optimizeQuality; fill-rule:evenodd; clip-rule:evenodd"
viewBox="0 0 5249 5673"
 xmlns:xlink="http://www.w3.org/1999/xlink">
 <defs>
  <style type="text/css">
   <![CDATA[
    .fil1 {fill:none}
    .fil0 {fill:white}
   ]]>
  </style>
 </defs>
 <g id="Слой_x0020_1">
  <metadata id="CorelCorpID_0Corel-Layer"/>
  <g id="_2823924982144">
   <path class="fil0" d="M2174 3348c1,1 2,2 3,3l1 0 46 39c133,103 321,176 489,176 80,0 168,-4 245,-27 28,-8 55,-16 83,-26 49,-18 97,-40 142,-67 86,-52 160,-117 225,-194l46 -60c141,-210 179,-436 127,-682 -33,-154 -122,-307 -242,-424 -246,-240 -618,-304 -932,-169 -13,5 -26,12 -39,17 -47,19 -88,48 -129,78 -40,28 -77,61 -112,95l-38 44c-28,34 -56,69 -78,107 -8,12 -14,24 -22,36 -12,21 -22,45 -32,67 -36,84 -60,174 -70,265l470 0 -695 723 -680 -723 473 0c5,-68 16,-136 29,-204 5,-23 10,-45 17,-67 28,-98 65,-195 118,-283 54,-89 111,-176 183,-251l1 -1 58 -58 1 -1c69,-64 146,-119 226,-168l1 -1 50 -27 1 -1c281,-146 612,-188 919,-110 110,27 208,67 302,118 285,158 493,400 603,708 47,132 72,271 72,414 0,179 -37,385 -116,547 -9,18 -16,36 -26,55 -9,16 -17,33 -27,50 -61,100 -121,185 -204,269 -166,166 -375,291 -605,345 -242,57 -511,50 -746,-36l-3 -1 -134 -58 -3 -2c-58,-31 -115,-60 -169,-99 -15,-10 -29,-21 -44,-32l-1 -2 -64 -52 -1 -2c-6,-5 -11,-10 -17,-16l298 -312zm356 -1260l363 0 0 583 502 299 -186 313 -678 -405 -1 0 0 -790zm-1747 -458c17,-4 46,-16 63,-22 22,-9 40,-17 63,-27 114,-49 262,-110 369,-164l470 -238c21,-11 33,-20 54,-30 22,-11 36,-20 59,-32 21,-11 34,-20 54,-31l389 -234c19,-12 32,-21 51,-34l269 -179c9,7 13,9 24,15 81,50 187,132 292,195l385 232c19,11 39,21 58,33l586 303c36,18 438,200 495,213 0,155 -37,589 -65,757 -8,49 -14,93 -21,143 -21,145 -83,403 -121,535 -44,150 -127,395 -199,538l-115 219c-5,9 -7,15 -14,26l-32 53c-56,92 -122,179 -189,264 -73,93 -236,270 -319,337l-179 149c-63,50 -121,95 -188,141 -34,24 -61,45 -96,68l-197 131c-136,83 -77,80 -207,2 -198,-118 -391,-273 -572,-413l-150 -133c-11,-11 -13,-11 -24,-21 -24,-21 -62,-59 -82,-82 -16,-17 -20,-26 -37,-43l-151 -178c-14,-17 -24,-30 -37,-47 -24,-33 -44,-63 -67,-97 -58,-86 -76,-123 -127,-207l-109 -220c-63,-151 -83,-192 -137,-355 -34,-102 -64,-214 -89,-320 -54,-232 -134,-685 -140,-930 -3,-105 -17,-204 -17,-317zm-464 -300l0 125c0,41 6,61 6,96 1,72 6,131 5,198 0,61 11,134 12,193 1,98 42,445 60,551 25,152 48,293 80,435 17,75 39,172 63,243l72 234c9,29 17,45 27,75 55,165 166,408 259,561 45,74 88,149 138,219 126,173 240,317 395,472 17,17 33,35 51,50l393 327c41,30 79,54 119,84l309 207c22,14 40,25 63,39l124 79c44,26 85,59 129,82 86,-46 165,-109 249,-159 165,-98 337,-215 491,-330 75,-56 221,-163 286,-229 20,-20 34,-28 54,-48 66,-68 147,-128 206,-202l279 -344c98,-143 270,-422 329,-593 10,-29 20,-45 30,-72l58 -152c18,-47 37,-98 52,-151 40,-136 83,-266 110,-406 7,-33 12,-57 20,-88 34,-142 68,-384 84,-527 10,-93 25,-190 28,-284 0,-22 4,-69 7,-94 11,-85 11,-351 18,-396 10,-64 3,-139 3,-206 -28,-7 -56,-19 -80,-28l-82 -31c-105,-36 -325,-127 -429,-177 -15,-8 -24,-12 -38,-18 -28,-11 -46,-21 -75,-33 -27,-12 -50,-24 -77,-36 -152,-67 -295,-150 -442,-226 -14,-8 -18,-11 -32,-19 -201,-112 -399,-228 -591,-355 -23,-15 -45,-30 -68,-45 -10,-7 -19,-13 -30,-21l-360 -257c-23,15 -42,31 -63,45l-663 447c-114,73 -239,137 -356,204 -47,27 -97,48 -145,77 -130,78 -311,149 -450,218l-389 165c-68,24 -137,56 -206,78 -17,5 -33,4 -33,23z"/>
   <rect class="fil1" width="5249" height="5673"/>
  </g>
 </g>
</svg>
