<?xml version="1.0" encoding="UTF-8"?>
<!DOCTYPE svg PUBLIC "-//W3C//DTD SVG 1.1//EN" "http://www.w3.org/Graphics/SVG/1.1/DTD/svg11.dtd">
<!-- Creator: CorelDRAW X8 -->
<svg xmlns="http://www.w3.org/2000/svg" xml:space="preserve" width="5.2492mm" height="5.6726mm" version="1.1" style="shape-rendering:geometricPrecision; text-rendering:geometricPrecision; image-rendering:optimizeQuality; fill-rule:evenodd; clip-rule:evenodd"
viewBox="0 0 5249 5673"
 xmlns:xlink="http://www.w3.org/1999/xlink">
 <defs>
  <style type="text/css">
   <![CDATA[
    .fil1 {fill:none}
    .fil0 {fill:white;fill-rule:nonzero}
   ]]>
  </style>
 </defs>
 <g id="Слой_x0020_1">
  <metadata id="CorelCorpID_0Corel-Layer"/>
  <g id="_2787499307904">
   <path class="fil0" d="M4118 2682c145,-57 267,-149 352,-265 78,-107 124,-235 124,-372 0,-188 -86,-360 -226,-485 -146,-130 -349,-211 -577,-211 -24,0 -41,0 -52,1 -16,1 -34,2 -53,4l-255 29 10 -257c0,-6 0,-3 0,-6l0 -5 0 0c0,4 -1,20 -1,0 0,-93 -42,-178 -112,-240 -76,-68 -183,-110 -303,-110 -66,0 -128,13 -183,35 -56,24 -104,57 -143,97l-116 123 -149 -80c-61,-33 -128,-59 -197,-76 -68,-17 -140,-26 -216,-26 -222,0 -420,79 -563,206 -135,122 -219,289 -219,472 0,26 -1,-3 -1,13l1 13 7 175 -168 48c-127,37 -236,108 -312,201 -69,85 -110,191 -110,304 0,99 31,192 85,270 59,86 145,156 248,202l-181 405c-177,-80 -327,-204 -432,-355 -104,-152 -165,-331 -165,-522 0,-218 79,-420 212,-583 99,-123 229,-223 379,-291 31,-266 163,-504 361,-681 222,-198 525,-321 858,-321 110,0 218,14 322,40 55,13 108,30 160,50 52,-36 109,-68 169,-93 108,-45 228,-70 353,-70 232,0 443,86 598,225 109,98 190,221 231,360 314,15 598,136 809,325 232,207 375,495 375,814 0,234 -78,452 -211,634 -134,183 -325,328 -549,415l-160 -412zm604 2225l-4307 0 0 445 4307 0 0 -445zm-3159 -579l-329 -1824 436 -78 328 1824 -435 78zm1576 -78l328 -1824 436 78 -329 1824 -435 -78zm-792 39l0 -2116 444 0 0 2116 -444 0zm1094 -3174c0,-2 0,-1 0,0l0 0z"/>
   <rect class="fil1" width="5249" height="5673"/>
  </g>
 </g>
</svg>
