<?xml version="1.0" encoding="UTF-8"?>
<!DOCTYPE svg PUBLIC "-//W3C//DTD SVG 1.1//EN" "http://www.w3.org/Graphics/SVG/1.1/DTD/svg11.dtd">
<!-- Creator: CorelDRAW X8 -->
<svg xmlns="http://www.w3.org/2000/svg" xml:space="preserve" width="5.2492mm" height="5.6726mm" version="1.1" style="shape-rendering:geometricPrecision; text-rendering:geometricPrecision; image-rendering:optimizeQuality; fill-rule:evenodd; clip-rule:evenodd"
viewBox="0 0 5249 5673"
 xmlns:xlink="http://www.w3.org/1999/xlink">
 <defs>
  <style type="text/css">
   <![CDATA[
    .fil1 {fill:none}
    .fil0 {fill:white}
   ]]>
  </style>
 </defs>
 <g id="Слой_x0020_1">
  <metadata id="CorelCorpID_0Corel-Layer"/>
  <g id="_2787497165040">
   <path class="fil0" d="M3769 2367c4,1 7,2 10,2 17,6 34,11 50,17l5 3c7,4 13,7 20,10l6 3 7 6c4,3 8,6 12,10 15,12 30,30 41,45 11,16 19,35 25,53 2,4 3,7 4,10 1,5 2,10 3,15 1,5 2,11 3,16 2,19 2,37 -1,55 -1,5 -1,10 -2,15l-2 8c-2,8 -4,16 -5,23 -2,5 -4,10 -6,15 -3,5 -5,11 -8,16 -4,8 -9,15 -14,23 -8,10 -15,20 -24,29l-1 0c-3,4 -6,7 -10,10 -5,4 -10,8 -15,12l-4 3 -6 4 -38 20 -5 2 -4 1c-29,7 -36,11 -66,13 -19,0 -39,-1 -57,-5l0 0c-3,-1 -5,-2 -7,-2 -7,-2 -14,-5 -20,-8 -27,-11 -53,-25 -75,-44l-26 -31c-4,-5 -7,-10 -10,-16 -4,-6 -7,-12 -11,-19l-1 -2c-4,-9 -8,-19 -11,-29l-2 -6 -1 -4c-2,-6 -3,-13 -4,-19 -3,-17 -4,-35 -2,-53 0,-3 0,-6 1,-10 4,-22 10,-45 19,-67 10,-16 20,-33 31,-48 6,-7 12,-12 18,-18 4,-4 8,-8 13,-11 8,-6 16,-12 24,-17 5,-4 11,-6 17,-9 3,-2 7,-4 11,-6 12,-5 24,-9 37,-11 8,-2 17,-4 26,-5 7,0 13,-1 20,-1 11,0 24,1 35,2zm-2076 -1181l-1120 -513 154 -338 1121 513 -155 338zm-233 509l-1120 -513 154 -338 1121 513 -155 338zm-233 509l-1120 -513 154 -338 1121 513 -155 338zm162 2437l1555 696 49 -110c35,-77 70,-155 112,-228 40,-70 85,-138 130,-206 84,-127 180,-246 274,-366 19,-24 39,-46 58,-71l58 -69 1 -2c18,-23 39,-44 57,-68l28 -32c86,-101 175,-201 265,-299 3,-3 6,-7 9,-10 65,-3 129,-14 194,-26 14,-2 28,-7 43,-10 60,-13 119,-32 175,-58 6,-3 11,-6 17,-9 46,-20 90,-44 134,-69 41,-24 80,-51 117,-81 90,-74 170,-151 238,-247 46,-66 88,-135 122,-208l1 -1 24 -53 0 -1c67,-159 98,-327 91,-500 -2,-71 -12,-141 -24,-211 -3,-18 -8,-35 -12,-52 -3,-17 -9,-32 -13,-48 -13,-52 -33,-99 -52,-149 -5,-12 -9,-23 -15,-34l-55 -109 -1 -2c-94,-166 -228,-310 -387,-416 -41,-28 -84,-52 -129,-74l-2 -1 -92 -41 -2 -1c-49,-20 -100,-39 -151,-57 -135,-49 -273,-89 -413,-125 -87,-23 -175,-43 -262,-63 -127,-29 -256,-55 -384,-80 -131,-25 -263,-49 -395,-67 -19,-2 -37,-5 -56,-9 -126,-23 -254,-34 -380,-53 -10,-2 -19,-4 -29,-5 -66,-11 -132,9 -162,75l-554 1238c-28,64 -2,127 51,168 4,3 8,6 12,9l273 232c26,22 53,43 79,65 15,12 30,24 45,36 97,76 192,155 290,229l129 97c8,5 15,12 23,17 112,79 222,162 336,238l66 44c-54,153 -145,270 -257,392 -10,12 -22,23 -33,34 -401,362 -727,462 -1196,751zm1967 -1406c-70,-44 -144,-85 -213,-132 -34,-23 -69,-45 -102,-68 -165,-115 -328,-230 -485,-354 -61,-48 -124,-94 -183,-144 -97,-81 -199,-157 -294,-240l361 -807 252 39 2 0c115,16 230,39 344,60 275,48 553,112 822,188 296,84 514,160 696,423 30,44 77,139 92,191 28,98 40,143 45,247 14,311 -204,632 -494,743 -11,4 -21,8 -32,12 -5,1 -9,2 -14,4 -47,13 -86,23 -134,29 -228,9 -410,-36 -604,-158 -19,-12 -40,-21 -59,-33zm-899 1334c316,-214 658,-518 810,-872 65,34 128,64 195,90l-113 129 -1 2c-174,210 -369,437 -513,667 -18,28 -38,55 -55,83 -17,28 -35,55 -51,83l-326 -146c19,-12 37,-24 54,-36zm1610 -1520c73,-52 145,-131 181,-213 9,-19 17,-38 24,-58 12,-31 21,-63 26,-97 4,-25 7,-47 7,-72 1,-7 1,-15 1,-23l0 -5c0,-18 -1,-37 -3,-55 -1,-10 -2,-20 -4,-30 -2,-17 -6,-33 -10,-50 -6,-24 -14,-49 -24,-72 -16,-40 -37,-77 -61,-113 -4,-5 -8,-11 -12,-16l-4 -7 -11 -13c-11,-13 -23,-27 -35,-39l-6 -6 -2 -3c-68,-66 -150,-113 -242,-139 -11,-4 -22,-6 -34,-9l-4 -1c-25,-5 -50,-9 -75,-11 -21,-2 -41,-2 -62,-1 -8,1 -15,1 -23,2 -34,2 -67,7 -99,16 -39,10 -78,24 -114,42 -45,23 -90,52 -127,87 -26,25 -44,44 -66,72 -6,7 -12,14 -17,22 -3,4 -6,9 -9,13 -17,26 -32,53 -45,81 -4,10 -9,20 -13,30 -27,72 -40,148 -37,224 1,18 2,36 4,54 2,18 6,35 10,52 7,34 19,68 32,100 17,40 50,98 79,131l1 1c5,7 10,13 16,20 9,9 18,19 27,28 16,15 32,30 49,43 26,20 53,37 81,53 45,25 94,45 145,54 55,11 104,19 161,14 26,-3 49,-5 74,-11l9 -2 17 -3c23,-5 47,-13 69,-22 12,-4 25,-10 36,-16 31,-14 64,-31 90,-52z"/>
   <rect class="fil1" width="5249" height="5673"/>
  </g>
 </g>
</svg>
